<svg xmlns="http://www.w3.org/2000/svg" width="720" height="320" viewBox="0 0 720 320">

  <!-- Left window: YOUR IDEA -->
  <rect x="20" y="30" width="190" height="140" rx="4" fill="none" stroke="#333" stroke-width="1.5"/>
  <text x="30" y="24" fill="#666" font-size="9" font-family="monospace">= x</text>
  <line x1="20" y1="48" x2="210" y2="48" stroke="#ddd" stroke-width="1"/>
  <text x="80" y="43" fill="#333" font-size="10" font-weight="600" font-family="monospace">YOUR IDEA</text>

  <text x="34" y="68" fill="#333" font-size="11" font-family="monospace">"I want to build</text>
  <text x="34" y="82" fill="#333" font-size="11" font-family="monospace"> a tool that...</text>
  <text x="34" y="96" fill="#333" font-size="11" font-family="monospace"> for [customer]"</text>

  <text x="34" y="120" fill="#999" font-size="10" font-family="monospace">stage: idea</text>
  <text x="34" y="134" fill="#999" font-size="10" font-family="monospace">discovery: 15 calls</text>
  <text x="34" y="148" fill="#999" font-size="10" font-family="monospace">revenue: pre</text>

  <!-- Connector 1 -->
  <line x1="210" y1="100" x2="252" y2="100" stroke="#ccc" stroke-width="1" stroke-dasharray="4,3"/>
  <polygon points="248,96 256,100 248,104" fill="#ccc"/>

  <!-- Center window: AI COFOUNDER -->
  <rect x="252" y="15" width="216" height="175" rx="4" fill="none" stroke="#333" stroke-width="1.5"/>
  <text x="262" y="9" fill="#666" font-size="9" font-family="monospace">= x</text>
  <line x1="252" y1="33" x2="468" y2="33" stroke="#ddd" stroke-width="1"/>
  <text x="302" y="28" fill="#e8590c" font-size="10" font-weight="600" font-family="monospace">AI COFOUNDER</text>

  <!-- Stars scatter -->
  <text x="276" y="56" fill="#333" font-size="11" font-family="monospace">*</text>
  <text x="310" y="50" fill="#e8590c" font-size="9" font-family="monospace">*</text>
  <text x="340" y="62" fill="#333" font-size="13" font-family="monospace">*</text>
  <text x="295" y="74" fill="#e8590c" font-size="10" font-family="monospace">*</text>
  <text x="370" y="52" fill="#333" font-size="8" font-family="monospace">*</text>
  <text x="420" y="58" fill="#e8590c" font-size="11" font-family="monospace">*</text>
  <text x="440" y="70" fill="#333" font-size="9" font-family="monospace">*</text>
  <text x="355" y="80" fill="#e8590c" font-size="12" font-family="monospace">*</text>
  <text x="265" y="90" fill="#333" font-size="8" font-family="monospace">*</text>
  <text x="400" y="86" fill="#333" font-size="10" font-family="monospace">*</text>
  <text x="325" y="95" fill="#e8590c" font-size="14" font-family="monospace">*</text>
  <text x="380" y="100" fill="#333" font-size="9" font-family="monospace">*</text>
  <text x="300" y="108" fill="#e8590c" font-size="8" font-family="monospace">*</text>
  <text x="450" y="94" fill="#e8590c" font-size="10" font-family="monospace">*</text>
  <text x="345" y="112" fill="#333" font-size="11" font-family="monospace">*</text>
  <text x="415" y="110" fill="#e8590c" font-size="8" font-family="monospace">*</text>

  <!-- Layer labels -->
  <text x="270" y="138" fill="#999" font-size="9" font-family="monospace">L1 problem</text>
  <text x="270" y="150" fill="#999" font-size="9" font-family="monospace">L2 market</text>
  <text x="270" y="162" fill="#999" font-size="9" font-family="monospace">L3 solution</text>
  <text x="270" y="174" fill="#999" font-size="9" font-family="monospace">L4 economics</text>
  <text x="380" y="138" fill="#999" font-size="9" font-family="monospace">L5 pnl</text>
  <text x="380" y="150" fill="#999" font-size="9" font-family="monospace">L6 timing</text>
  <text x="380" y="162" fill="#999" font-size="9" font-family="monospace">L7 founder</text>
  <text x="380" y="174" fill="#999" font-size="9" font-family="monospace">L8 traction</text>

  <!-- Loading bar -->
  <rect x="290" y="182" width="140" height="3" rx="1.5" fill="#eee"/>
  <rect x="290" y="182" width="95" height="3" rx="1.5" fill="#e8590c"/>

  <!-- Connector 2 -->
  <line x1="468" y1="100" x2="510" y2="100" stroke="#ccc" stroke-width="1" stroke-dasharray="4,3"/>
  <polygon points="506,96 514,100 506,104" fill="#ccc"/>

  <!-- Right window: SCORECARD -->
  <rect x="510" y="30" width="190" height="140" rx="4" fill="none" stroke="#333" stroke-width="1.5"/>
  <text x="520" y="24" fill="#666" font-size="9" font-family="monospace">= x</text>
  <line x1="510" y1="48" x2="700" y2="48" stroke="#ddd" stroke-width="1"/>
  <text x="568" y="43" fill="#333" font-size="10" font-weight="600" font-family="monospace">SCORECARD</text>

  <!-- Bar chart -->
  <text x="524" y="65" fill="#999" font-size="9" font-family="monospace">5 |</text>
  <rect x="550" y="56" width="14" height="40" rx="1" fill="#e8590c" opacity="0.8"/>
  <rect x="570" y="66" width="14" height="30" rx="1" fill="#333" opacity="0.5"/>
  <rect x="590" y="76" width="14" height="20" rx="1" fill="#e8590c" opacity="0.8"/>
  <rect x="610" y="56" width="14" height="40" rx="1" fill="#333" opacity="0.5"/>
  <rect x="630" y="66" width="14" height="30" rx="1" fill="#e8590c" opacity="0.8"/>
  <rect x="650" y="76" width="14" height="20" rx="1" fill="#333" opacity="0.5"/>
  <rect x="670" y="56" width="14" height="40" rx="1" fill="#e8590c" opacity="0.8"/>

  <text x="524" y="105" fill="#999" font-size="9" font-family="monospace">1 |</text>
  <line x1="544" y1="96" x2="690" y2="96" stroke="#eee" stroke-width="0.5"/>

  <text x="524" y="120" fill="#333" font-size="11" font-family="monospace">22/40</text>
  <text x="524" y="134" fill="#999" font-size="10" font-family="monospace">2 gaps found</text>
  <text x="524" y="148" fill="#999" font-size="10" font-family="monospace">kill risk: moat</text>
  <text x="524" y="162" fill="#999" font-size="10" font-family="monospace">verdict: conditional</text>

  <!-- Bottom: title -->
  <text x="360" y="232" text-anchor="middle" fill="#111" font-size="22" font-weight="700" font-family="monospace">AI Cofounder</text>
  <text x="360" y="255" text-anchor="middle" fill="#666" font-size="12" font-family="monospace">The world's most advanced AI skill for startup idea validation</text>

  <!-- Bottom tags -->
  <text x="360" y="280" text-anchor="middle" fill="#999" font-size="10" font-family="monospace">7 layers  .  9 frameworks  .  8 business models  .  real math  .  no flattery</text>

  <!-- Decorative dots -->
  <circle cx="312" cy="300" r="2" fill="#e8590c"/>
  <circle cx="332" cy="303" r="1.5" fill="#333" opacity="0.4"/>
  <circle cx="352" cy="298" r="2.5" fill="#e8590c"/>
  <circle cx="372" cy="304" r="1.5" fill="#333" opacity="0.4"/>
  <circle cx="392" cy="299" r="2" fill="#e8590c"/>
  <circle cx="412" cy="302" r="1.5" fill="#333" opacity="0.4"/>

</svg>
